<svg viewBox="0 0 50 50" xmlns="http://www.w3.org/2000/svg" xmlns:xlink="http://www.w3.org/1999/xlink" version="1.1" class="jsx-2263963463 artboard-inner" style="width: 300px; height: 300px; max-height: 100%;"><g transform="translate(0 0) scale(0.5022198183407404)" id="lockup4-icon"><g fill="#FFFFFF"><g><path d="M49.779 0C22.286 0 0 22.286 0 49.779c0 27.493 22.286 49.779 49.779 49.779s49.779-22.286 49.779-49.779C99.559 22.286 77.272 0 49.779 0zm42.546 54H80.461c-2.154 15-15.066 26.651-30.682 26.651-17.123 0-31.003-13.791-31.003-30.915 0-17.123 13.88-31.045 31.003-31.045 15.825 0 28.871 11.774 30.759 27.088l.008-.779h11.779C94.255 45 96 46.904 96 48.834v1.89C96 52.654 94.255 54 92.325 54z"></path><path d="M49.779 23.725c-14.39 0-26.055 11.665-26.055 26.055s11.665 26.054 26.055 26.054S75.833 64.17 75.833 49.78c0-14.391-11.664-26.055-26.054-26.055zm5.559 39.169c-3.09 1.498-15.29 5.303-15.29 5.303s-3.771-12.211-4.289-15.607c-.514-3.396.317-12.413 7.473-11.695 7.34.74 7.062 7.831 7.062 7.831s5.688-4.244 10.452 1.389c4.645 5.489-2.317 11.28-5.408 12.779z"></path></g></g></g></svg>