<svg viewBox="-227.79999999999993 -97.99999999999999 794.0666666666664 199.99999999999997" xmlns="http://www.w3.org/2000/svg" xmlns:xlink="http://www.w3.org/1999/xlink" version="1.1" class="jsx-2263963463 artboard-inner" style="width: 480px; height: 120.897px; max-height: 100%;"><g transform="translate(-3.333333333333333 42.66666666666666) scale(1.8518518518518514)" fill="#FFFFFF"><g id="line1"><path d="M1.800-8.136C1.800-7.272 2.016-6.552 2.448-5.976C4.176-3.624 6.408-1.920 9.144-0.864C11.880 0.192 14.832 0.720 18.000 0.720C20.304 0.720 22.548 0.264 24.732-0.648C26.916-1.560 28.704-2.892 30.096-4.644C31.488-6.396 32.184-8.448 32.184-10.800C32.184-13.392 31.584-15.480 30.384-17.064C29.184-18.648 27.720-19.824 25.992-20.592C24.264-21.360 22.104-22.104 19.512-22.824C17.640-23.352 16.188-23.796 15.156-24.156C14.124-24.516 13.272-25.020 12.600-25.668C11.928-26.316 11.592-27.168 11.592-28.224C11.592-30.864 13.416-32.184 17.064-32.184C18.792-32.184 20.340-31.872 21.708-31.248C23.076-30.624 24.192-29.784 25.056-28.728C25.728-28.056 26.592-27.720 27.648-27.720C28.512-27.720 29.280-27.984 29.952-28.512C30.864-29.232 31.320-30.144 31.320-31.248C31.320-32.208 31.008-33.072 30.384-33.840C28.992-35.616 27.072-36.960 24.624-37.872C22.176-38.784 19.728-39.240 17.280-39.240C14.880-39.240 12.612-38.772 10.476-37.836C8.340-36.900 6.612-35.580 5.292-33.876C3.972-32.172 3.312-30.168 3.312-27.864C3.312-25.224 3.948-23.124 5.220-21.564C6.492-20.004 8.004-18.840 9.756-18.072C11.508-17.304 13.776-16.536 16.560-15.768C19.248-15.048 21.228-14.328 22.500-13.608C23.772-12.888 24.408-11.832 24.408-10.440C24.408-7.752 22.536-6.336 18.792-6.192C16.584-6.192 14.700-6.552 13.140-7.272C11.580-7.992 10.080-9.096 8.640-10.584C7.728-11.496 6.768-11.952 5.760-11.952C5.040-11.952 4.344-11.736 3.672-11.304C2.424-10.440 1.800-9.384 1.800-8.136Z"></path><path d="M68.400-34.884C66.528-37.788 63.144-39.240 58.248-39.240C55.752-39.240 53.460-38.616 51.372-37.368C49.284-36.120 47.592-34.632 46.296-32.904L46.296-34.128C46.296-35.376 45.888-36.420 45.072-37.260C44.256-38.100 43.224-38.520 41.976-38.520C40.728-38.520 39.696-38.100 38.880-37.260C38.064-36.420 37.656-35.376 37.656-34.128L37.656-4.392C37.656-3.144 38.064-2.100 38.880-1.260C39.696-0.420 40.728 0 41.976 0C43.224 0 44.256-0.420 45.072-1.260C45.888-2.100 46.296-3.144 46.296-4.392L46.296-22.824C46.296-25.272 47.088-27.300 48.672-28.908C50.256-30.516 52.440-31.320 55.224-31.320C57.912-31.320 59.808-30.564 60.912-29.052C62.016-27.540 62.568-25.464 62.568-22.824L62.568-4.392C62.568-3.144 62.976-2.100 63.792-1.260C64.608-0.420 65.640 0 66.888 0C68.136 0 69.168-0.420 69.984-1.260C70.800-2.100 71.208-3.144 71.208-4.392L71.208-22.824C71.208-27.960 70.272-31.980 68.400-34.884Z"></path><path d="M113.112-38.016C112.296-38.832 111.264-39.240 110.016-39.240C108.768-39.240 107.736-38.820 106.920-37.980C106.104-37.140 105.696-36.096 105.696-34.848L105.696-34.776C104.304-36.072 102.600-37.140 100.584-37.980C98.568-38.820 96.408-39.240 94.104-39.240C90.888-39.240 87.948-38.388 85.284-36.684C82.620-34.980 80.520-32.604 78.984-29.556C77.448-26.508 76.680-23.064 76.680-19.224C76.680-15.384 77.460-11.952 79.020-8.928C80.580-5.904 82.704-3.540 85.392-1.836C88.080-0.132 91.080 0.720 94.392 0.720C96.648 0.720 98.796 0.228 100.836-0.756C102.876-1.740 104.496-2.928 105.696-4.320C105.744-3.072 106.164-2.040 106.956-1.224C107.748-0.408 108.768 0 110.016 0C111.264 0 112.296-0.420 113.112-1.260C113.928-2.100 114.336-3.144 114.336-4.392L114.336-34.848C114.336-36.144 113.928-37.200 113.112-38.016ZM103.104-10.620C101.136-8.340 98.592-7.200 95.472-7.200C92.352-7.200 89.820-8.340 87.876-10.620C85.932-12.900 84.960-15.768 84.960-19.224C84.960-22.680 85.944-25.560 87.912-27.864C89.880-30.168 92.400-31.320 95.472-31.320C98.592-31.320 101.136-30.168 103.104-27.864C105.072-25.560 106.056-22.680 106.056-19.224C106.056-15.768 105.072-12.900 103.104-10.620Z"></path><path d="M148.608-37.332C146.112-38.604 142.824-39.240 138.744-39.240C135.096-39.240 131.832-38.388 128.952-36.684C126.072-34.980 123.828-32.616 122.220-29.592C120.612-26.568 119.808-23.112 119.808-19.224C119.808-15.480 120.576-12.084 122.112-9.036C123.648-5.988 125.820-3.600 128.628-1.872C131.436-0.144 134.688 0.720 138.384 0.720C140.880 0.720 143.232 0.420 145.440-0.180C147.648-0.780 149.424-1.584 150.768-2.592C152.112-3.600 152.784-4.680 152.784-5.832C152.784-7.032 152.436-8.016 151.740-8.784C151.044-9.552 150.096-9.936 148.896-9.936C148.272-9.936 147.744-9.840 147.312-9.648C146.880-9.456 146.412-9.180 145.908-8.820C145.404-8.460 145.008-8.208 144.720-8.064C143.568-7.488 141.816-7.200 139.464-7.200C136.248-7.200 133.608-8.340 131.544-10.620C129.480-12.900 128.448-15.768 128.448-19.224C128.448-22.824 129.468-25.740 131.508-27.972C133.548-30.204 136.368-31.320 139.968-31.320C140.544-31.320 141.300-31.224 142.236-31.032C143.172-30.840 143.880-30.624 144.360-30.384C144.792-30.144 145.236-29.844 145.692-29.484C146.148-29.124 146.616-28.836 147.096-28.620C147.576-28.404 148.200-28.296 148.968-28.296C149.976-28.296 150.792-28.692 151.416-29.484C152.040-30.276 152.352-31.200 152.352-32.256C152.352-34.368 151.104-36.060 148.608-37.332Z"></path><path d="M190.728-4.320C190.728-5.520 190.272-6.600 189.360-7.560L176.760-21.240L187.632-31.248C188.784-32.256 189.360-33.336 189.360-34.488C189.360-35.400 188.940-36.300 188.100-37.188C187.260-38.076 186.312-38.520 185.256-38.520C184.056-38.520 183.000-38.064 182.088-37.152L166.680-22.248L166.680-48.888C166.680-50.136 166.272-51.180 165.456-52.020C164.640-52.860 163.608-53.280 162.360-53.280C161.112-53.280 160.080-52.860 159.264-52.020C158.448-51.180 158.040-50.136 158.040-48.888L158.040-4.392C158.040-3.144 158.448-2.100 159.264-1.260C160.080-0.420 161.112 0 162.360 0C163.608 0 164.640-0.420 165.456-1.260C166.272-2.100 166.680-3.144 166.680-4.392L166.680-11.952L170.208-15.192L183.168-1.512C184.032-0.552 185.088-0.072 186.336-0.072C187.392-0.072 188.388-0.480 189.324-1.296C190.260-2.112 190.728-3.120 190.728-4.320Z"></path><path d="M225.144-36.684C222.456-38.388 219.456-39.240 216.144-39.240C213.888-39.240 211.728-38.700 209.664-37.620C207.600-36.540 205.992-35.280 204.840-33.840L204.840-48.888C204.840-50.136 204.432-51.180 203.616-52.020C202.800-52.860 201.768-53.280 200.520-53.280C199.272-53.280 198.240-52.860 197.424-52.020C196.608-51.180 196.200-50.136 196.200-48.888L196.200-3.672C196.200-2.376 196.608-1.320 197.424-0.504C198.240 0.312 199.272 0.720 200.520 0.720C201.768 0.720 202.800 0.300 203.616-0.540C204.432-1.380 204.840-2.424 204.840-3.672L204.840-4.104C206.184-2.760 207.876-1.620 209.916-0.684C211.956 0.252 214.128 0.720 216.432 0.720C219.648 0.720 222.588-0.132 225.252-1.836C227.916-3.540 230.016-5.916 231.552-8.964C233.088-12.012 233.856-15.456 233.856-19.296C233.856-23.136 233.076-26.568 231.516-29.592C229.956-32.616 227.832-34.980 225.144-36.684ZM222.624-10.656C220.656-8.352 218.136-7.200 215.064-7.200C211.944-7.200 209.400-8.352 207.432-10.656C205.464-12.960 204.480-15.840 204.480-19.296C204.480-22.752 205.464-25.620 207.432-27.900C209.400-30.180 211.944-31.320 215.064-31.320C218.184-31.320 220.716-30.180 222.660-27.900C224.604-25.620 225.576-22.752 225.576-19.296C225.576-15.840 224.592-12.960 222.624-10.656Z"></path><path d="M273.600-38.016C272.784-38.832 271.752-39.240 270.504-39.240C269.256-39.240 268.224-38.820 267.408-37.980C266.592-37.140 266.184-36.096 266.184-34.848L266.184-34.776C264.792-36.072 263.088-37.140 261.072-37.980C259.056-38.820 256.896-39.240 254.592-39.240C251.376-39.240 248.436-38.388 245.772-36.684C243.108-34.980 241.008-32.604 239.472-29.556C237.936-26.508 237.168-23.064 237.168-19.224C237.168-15.384 237.948-11.952 239.508-8.928C241.068-5.904 243.192-3.540 245.880-1.836C248.568-0.132 251.568 0.720 254.880 0.720C257.136 0.720 259.284 0.228 261.324-0.756C263.364-1.740 264.984-2.928 266.184-4.320C266.232-3.072 266.652-2.040 267.444-1.224C268.236-0.408 269.256 0 270.504 0C271.752 0 272.784-0.420 273.600-1.260C274.416-2.100 274.824-3.144 274.824-4.392L274.824-34.848C274.824-36.144 274.416-37.200 273.600-38.016ZM263.592-10.620C261.624-8.340 259.080-7.200 255.960-7.200C252.840-7.200 250.308-8.340 248.364-10.620C246.420-12.900 245.448-15.768 245.448-19.224C245.448-22.680 246.432-25.560 248.400-27.864C250.368-30.168 252.888-31.320 255.960-31.320C259.080-31.320 261.624-30.168 263.592-27.864C265.560-25.560 266.544-22.680 266.544-19.224C266.544-15.768 265.560-12.900 263.592-10.620Z"></path><path d="M306.108-38.016C305.124-38.832 303.912-39.240 302.472-39.240C300.120-39.240 297.912-38.724 295.848-37.692C293.784-36.660 292.200-35.160 291.096-33.192L291.096-34.128C291.096-35.376 290.688-36.420 289.872-37.260C289.056-38.100 288.024-38.520 286.776-38.520C285.528-38.520 284.496-38.100 283.680-37.260C282.864-36.420 282.456-35.376 282.456-34.128L282.456-4.392C282.456-3.144 282.864-2.100 283.680-1.260C284.496-0.420 285.528 0 286.776 0C288.024 0 289.056-0.420 289.872-1.260C290.688-2.100 291.096-3.144 291.096-4.392L291.096-21.456C291.096-23.616 291.468-25.476 292.212-27.036C292.956-28.596 293.904-29.760 295.056-30.528C296.208-31.296 297.408-31.680 298.656-31.680C299.232-31.680 299.772-31.608 300.276-31.464C300.780-31.320 301.104-31.224 301.248-31.176C302.160-30.840 302.976-30.672 303.696-30.672C304.752-30.672 305.664-31.044 306.432-31.788C307.200-32.532 307.584-33.648 307.584-35.136C307.584-36.240 307.092-37.200 306.108-38.016Z"></path></g></g><g transform="translate(-227.79999999999993 -97.99999999999999) scale(2.008879273362961)" id="logomark"><g fill="#FFFFFF"><g><path d="M49.779 0C22.286 0 0 22.286 0 49.779c0 27.493 22.286 49.779 49.779 49.779s49.779-22.286 49.779-49.779C99.559 22.286 77.272 0 49.779 0zm42.546 54H80.461c-2.154 15-15.066 26.651-30.682 26.651-17.123 0-31.003-13.791-31.003-30.915 0-17.123 13.88-31.045 31.003-31.045 15.825 0 28.871 11.774 30.759 27.088l.008-.779h11.779C94.255 45 96 46.904 96 48.834v1.89C96 52.654 94.255 54 92.325 54z"></path><path d="M49.779 23.725c-14.39 0-26.055 11.665-26.055 26.055s11.665 26.054 26.055 26.054S75.833 64.17 75.833 49.78c0-14.391-11.664-26.055-26.054-26.055zm5.559 39.169c-3.09 1.498-15.29 5.303-15.29 5.303s-3.771-12.211-4.289-15.607c-.514-3.396.317-12.413 7.473-11.695 7.34.74 7.062 7.831 7.062 7.831s5.688-4.244 10.452 1.389c4.645 5.489-2.317 11.28-5.408 12.779z"></path></g></g></g></svg>